<svg width="91" height="91" viewBox="0 0 91 91" fill="none" xmlns="http://www.w3.org/2000/svg">
<path d="M73.4518 1.15222H17.0121C8.47722 1.15222 1.55835 8.0912 1.55835 16.6509V73.2546C1.55835 81.8143 8.47722 88.7532 17.0121 88.7532H73.4518C81.9866 88.7532 88.9055 81.8143 88.9055 73.2546V16.6509C88.9055 8.0912 81.9866 1.15222 73.4518 1.15222Z" fill="#1A1A1A"/>
<path d="M16.1383 2.43481H74.3255C82.02 2.43481 88.2577 8.67247 88.2577 16.367V74.5542C88.2577 82.2487 82.02 88.4864 74.3255 88.4864H16.1383C8.44372 88.4864 2.20605 82.2487 2.20605 74.5542V16.367C2.20605 8.67247 8.44372 2.43481 16.1383 2.43481Z" stroke="url(#paint0_linear_1089_605)" stroke-width="4"/>
<g opacity="0.9">
<path d="M37.0565 36.0273V33.1553C37.0565 31.9459 38.0346 30.9677 39.2441 30.9677H51.8103C53.0198 30.9677 53.998 31.9459 53.998 33.1553V50.5187C53.998 51.7281 53.0198 52.7063 51.8103 52.7063H45.8069C44.5975 52.7063 43.6193 53.6845 43.6193 54.8939V65.0101C43.6193 66.2195 42.6411 67.1977 41.4317 67.1977H31.4999C30.2905 67.1977 29.3123 66.2195 29.3123 65.0101V25.9112C29.3123 24.7017 30.2905 23.7236 31.4999 23.7236H58.9638C60.1733 23.7236 61.1514 24.7017 61.1514 25.9112V36.0273C61.1514 37.2368 60.1733 38.2149 58.9638 38.2149H39.2441C38.0346 38.2149 37.0565 37.2368 37.0565 36.0273Z" stroke="white" stroke-width="1.63446" stroke-miterlimit="10"/>
</g>
<defs>
<linearGradient id="paint0_linear_1089_605" x1="73.3573" y1="0.434815" x2="25.3832" y2="90.4864" gradientUnits="userSpaceOnUse">
<stop stop-color="#C6C6C6"/>
<stop offset="0.401042" stop-color="#BBB4B4"/>
<stop offset="0.75036" stop-color="#BAB0B0"/>
<stop offset="1" stop-color="#939393"/>
</linearGradient>
</defs>
</svg>
