<svg width="91" height="91" viewBox="0 0 91 91" fill="none" xmlns="http://www.w3.org/2000/svg">
<path d="M73.2457 0.717407H16.806C8.27116 0.717407 1.35229 7.65638 1.35229 16.216V72.8198C1.35229 81.3794 8.27116 88.3184 16.806 88.3184H73.2457C81.7806 88.3184 88.6994 81.3794 88.6994 72.8198V16.216C88.6994 7.65638 81.7806 0.717407 73.2457 0.717407Z" fill="#1A1A1A"/>
<path d="M15.9322 2H74.1194C81.814 2 88.0516 8.23766 88.0516 15.9322V74.1194C88.0516 81.8139 81.814 88.0516 74.1194 88.0516H15.9322C8.23766 88.0516 2 81.8139 2 74.1194V15.9322C2 8.23766 8.23766 2 15.9322 2Z" stroke="url(#paint0_linear_1089_603)" stroke-width="4"/>
<g opacity="0.9">
<path d="M47.0634 33.4268L47.0478 25.4732C47.0478 24.2669 46.0665 23.2888 44.8602 23.2888H33.8753C32.6658 23.2888 31.6877 24.2669 31.6877 25.4764V64.5752C31.6877 65.7847 32.6658 66.7628 33.8753 66.7628H56.1764C57.3858 66.7628 58.364 65.7847 58.364 64.5752V54.8185C58.364 53.6091 57.3858 52.6309 56.1764 52.6309H38.4255C37.2161 52.6309 36.2379 53.6091 36.2379 54.8185V57.3624C36.2379 58.5718 37.2161 59.55 38.4255 59.55H44.8758C46.0853 59.55 47.0634 58.5718 47.0634 57.3624V33.4236V33.4268Z" stroke="white" stroke-width="1.63446" stroke-miterlimit="10"/>
</g>
<defs>
<linearGradient id="paint0_linear_1089_603" x1="73.1513" y1="2.32561e-07" x2="25.1772" y2="90.0515" gradientUnits="userSpaceOnUse">
<stop stop-color="#C6C6C6"/>
<stop offset="0.401042" stop-color="#BBB4B4"/>
<stop offset="0.75036" stop-color="#BAB0B0"/>
<stop offset="1" stop-color="#939393"/>
</linearGradient>
</defs>
</svg>
