<svg width="61" height="60" viewBox="0 0 61 60" fill="none" xmlns="http://www.w3.org/2000/svg">
<circle cx="30.7861" cy="30" r="30" fill="#0B031D"/>
<path d="M32.4917 21.6697L32.4798 15.6147C32.4798 14.6963 31.7327 13.9517 30.8143 13.9517H22.4516C21.5308 13.9517 20.7861 14.6963 20.7861 15.6171V45.3829C20.7861 46.3036 21.5308 47.0483 22.4516 47.0483H39.4293C40.3501 47.0483 41.0947 46.3036 41.0947 45.3829V37.9551C41.0947 37.0344 40.3501 36.2897 39.4293 36.2897H25.9156C24.9949 36.2897 24.2502 37.0344 24.2502 37.9551V39.8918C24.2502 40.8125 24.9949 41.5572 25.9156 41.5572H30.8262C31.747 41.5572 32.4917 40.8125 32.4917 39.8918V21.6673V21.6697Z" stroke="white" stroke-width="1.24431" stroke-miterlimit="10"/>
</svg>
