<svg width="264" height="63" viewBox="0 0 264 63" fill="none" xmlns="http://www.w3.org/2000/svg">
<g clip-path="url(#clip0_1790_79692)">
<path fill-rule="evenodd" clip-rule="evenodd" d="M0.638628 50.5978C0.638628 52.3871 2.07923 53.8375 3.85641 53.8375H13.9419C15.7191 53.8375 17.1597 52.3871 17.1597 50.5978V40.2511C17.1597 39.4035 17.8424 38.7161 18.6842 38.7161H24.6982C26.4754 38.7161 27.916 37.2657 27.916 35.4764V23.595H32.1118C33.8893 23.595 35.3299 22.1442 35.3299 20.355V10.0083C35.3299 8.2189 33.8892 6.76851 32.1118 6.76851H3.85641C2.07923 6.76851 0.638628 8.21897 0.638628 10.0083V50.5978ZM26.2224 23.595H11.8828C10.1053 23.595 8.66474 22.1442 8.66474 20.355V17.569C8.66474 15.7796 10.1054 14.3292 11.8828 14.3292H24.6982C26.4754 14.3292 27.916 15.7797 27.916 17.569V21.8899H32.1118C32.9539 21.8899 33.6363 21.2026 33.6363 20.355V10.0083C33.6363 9.16076 32.954 8.47366 32.1118 8.47366H3.85641C3.01457 8.47366 2.33219 9.16069 2.33219 10.0083V50.5978C2.33219 51.4453 3.01457 52.1324 3.85641 52.1324H13.9419C14.7838 52.1324 15.4662 51.4453 15.4662 50.5978V40.2511C15.4662 38.4617 16.907 37.011 18.6842 37.011H24.6982C25.54 37.011 26.2224 36.324 26.2224 35.4764V23.595ZM26.2224 21.8899V17.569C26.2224 16.7214 25.54 16.0343 24.6982 16.0343H11.8828C11.0406 16.0343 10.3583 16.7215 10.3583 17.569V20.355C10.3583 21.2026 11.0407 21.8899 11.8828 21.8899H26.2224Z" fill="white" style="fill:white;fill-opacity:1;"/>
<path d="M68.9954 16.4672V22.9253H57.3211V28.0587H65.9319V34.2271H57.3211V45.653H49.207V16.4672H68.9954ZM82.8036 45.9427C80.4853 45.9427 78.4016 45.4598 76.5525 44.4938C74.731 43.5278 73.2958 42.1479 72.2471 40.354C71.1983 38.5601 70.6739 36.4488 70.6739 34.0201C70.6739 31.619 71.1983 29.5215 72.2471 27.7275C73.3234 25.9336 74.7724 24.5537 76.5939 23.5877C78.443 22.6218 80.5267 22.1388 82.845 22.1388C85.1633 22.1388 87.2332 22.6218 89.0547 23.5877C90.9039 24.5537 92.3528 25.9336 93.4015 27.7275C94.4779 29.5215 95.0161 31.619 95.0161 34.0201C95.0161 36.4212 94.4779 38.5325 93.4015 40.354C92.3528 42.1479 90.9039 43.5278 89.0547 44.4938C87.2056 45.4598 85.1219 45.9427 82.8036 45.9427ZM82.8036 38.905C83.9352 38.905 84.8735 38.4911 85.6187 37.6631C86.3915 36.8075 86.7778 35.5932 86.7778 34.0201C86.7778 32.4469 86.3915 31.2464 85.6187 30.4184C84.8735 29.5905 83.949 29.1765 82.845 29.1765C81.7411 29.1765 80.8165 29.5905 80.0713 30.4184C79.3262 31.2464 78.9536 32.4469 78.9536 34.0201C78.9536 35.6208 79.3124 36.8351 80.0299 37.6631C80.7475 38.4911 81.6721 38.905 82.8036 38.905ZM106.017 26.527C106.928 25.2022 108.032 24.1535 109.329 23.3807C110.626 22.608 112.02 22.2216 113.51 22.2216V30.8738H111.233C109.467 30.8738 108.156 31.2188 107.301 31.9088C106.445 32.5987 106.017 33.7993 106.017 35.5104V45.653H97.9033V22.4286H106.017V26.527ZM146.35 22.2216C149.276 22.2216 151.566 23.1047 153.222 24.8711C154.906 26.6374 155.748 29.0523 155.748 32.1157V45.653H147.634V33.1921C147.634 31.9502 147.289 30.9842 146.599 30.2942C145.909 29.6043 144.97 29.2593 143.783 29.2593C142.597 29.2593 141.658 29.6043 140.968 30.2942C140.278 30.9842 139.933 31.9502 139.933 33.1921V45.653H131.819V33.1921C131.819 31.9502 131.474 30.9842 130.784 30.2942C130.122 29.6043 129.198 29.2593 128.011 29.2593C126.796 29.2593 125.844 29.6043 125.154 30.2942C124.464 30.9842 124.119 31.9502 124.119 33.1921V45.653H116.005V22.4286H124.119V25.492C124.837 24.4985 125.761 23.7119 126.893 23.1323C128.052 22.5252 129.377 22.2216 130.867 22.2216C132.578 22.2216 134.096 22.5942 135.421 23.3393C136.773 24.0845 137.836 25.1332 138.609 26.4856C139.437 25.216 140.527 24.1949 141.879 23.4221C143.232 22.6218 144.722 22.2216 146.35 22.2216ZM158.454 34.0201C158.454 31.619 158.882 29.5215 159.738 27.7275C160.621 25.9336 161.808 24.5537 163.298 23.5877C164.816 22.6218 166.499 22.1388 168.348 22.1388C169.949 22.1388 171.329 22.4562 172.488 23.0909C173.647 23.7257 174.544 24.5813 175.179 25.6576V22.4286H183.293V45.653H175.179V42.4239C174.544 43.5002 173.634 44.3558 172.447 44.9906C171.288 45.6254 169.922 45.9427 168.348 45.9427C166.499 45.9427 164.816 45.4598 163.298 44.4938C161.808 43.5278 160.621 42.1479 159.738 40.354C158.882 38.5325 158.454 36.4212 158.454 34.0201ZM175.179 34.0201C175.179 32.5297 174.765 31.3568 173.937 30.5012C173.137 29.6457 172.143 29.2179 170.957 29.2179C169.742 29.2179 168.735 29.6457 167.934 30.5012C167.134 31.3292 166.734 32.5021 166.734 34.0201C166.734 35.5104 167.134 36.6971 167.934 37.5803C168.735 38.4359 169.742 38.8636 170.957 38.8636C172.143 38.8636 173.137 38.4359 173.937 37.5803C174.765 36.7247 175.179 35.538 175.179 34.0201ZM202.696 22.2216C205.373 22.2216 207.498 23.1185 209.071 24.9125C210.644 26.6788 211.431 29.0799 211.431 32.1157V45.653H203.317V33.1921C203.317 31.8674 202.972 30.8324 202.282 30.0872C201.592 29.3145 200.668 28.9281 199.508 28.9281C198.294 28.9281 197.342 29.3145 196.652 30.0872C195.962 30.8324 195.617 31.8674 195.617 33.1921V45.653H187.503V22.4286H195.617V25.7404C196.335 24.6917 197.3 23.8499 198.515 23.2151C199.729 22.5528 201.123 22.2216 202.696 22.2216ZM214.145 34.0201C214.145 31.619 214.641 29.5215 215.635 27.7275C216.628 25.9336 218.008 24.5537 219.775 23.5877C221.569 22.6218 223.611 22.1388 225.902 22.1388C228.855 22.1388 231.339 22.9529 233.353 24.5813C235.368 26.182 236.665 28.4313 237.245 31.3292H228.634C228.137 29.8112 227.171 29.0523 225.736 29.0523C224.715 29.0523 223.901 29.4801 223.294 30.3356C222.714 31.1636 222.424 32.3917 222.424 34.0201C222.424 35.6484 222.714 36.8903 223.294 37.7459C223.901 38.6015 224.715 39.0292 225.736 39.0292C227.199 39.0292 228.165 38.2703 228.634 36.7523H237.245C236.665 39.6226 235.368 41.8719 233.353 43.5002C231.339 45.1286 228.855 45.9427 225.902 45.9427C223.611 45.9427 221.569 45.4598 219.775 44.4938C218.008 43.5278 216.628 42.1479 215.635 40.354C214.641 38.5601 214.145 36.4488 214.145 34.0201ZM262.391 33.7717C262.391 34.4064 262.35 35.0412 262.267 35.676H246.908C246.991 36.9455 247.336 37.8977 247.943 38.5325C248.578 39.1396 249.378 39.4432 250.344 39.4432C251.696 39.4432 252.662 38.8361 253.242 37.6217H261.894C261.535 39.2224 260.832 40.6576 259.783 41.9271C258.762 43.1691 257.465 44.1488 255.891 44.8664C254.318 45.584 252.58 45.9427 250.675 45.9427C248.385 45.9427 246.342 45.4598 244.548 44.4938C242.782 43.5278 241.388 42.1479 240.367 40.354C239.374 38.5601 238.877 36.4488 238.877 34.0201C238.877 31.5914 239.374 29.4939 240.367 27.7275C241.361 25.9336 242.741 24.5537 244.507 23.5877C246.301 22.6218 248.357 22.1388 250.675 22.1388C252.966 22.1388 254.994 22.608 256.761 23.5463C258.527 24.4847 259.907 25.837 260.901 27.6033C261.894 29.3421 262.391 31.3982 262.391 33.7717ZM254.111 31.7432C254.111 30.7496 253.78 29.9768 253.118 29.4249C252.455 28.8453 251.627 28.5555 250.634 28.5555C249.64 28.5555 248.826 28.8315 248.191 29.3835C247.557 29.9078 247.143 30.6944 246.949 31.7432H254.111Z" fill="white" style="fill:white;fill-opacity:1;"/>
</g>
<defs>
<clipPath id="clip0_1790_79692">
<rect width="263.67" height="62.0973" fill="white" style="fill:white;fill-opacity:1;" transform="translate(7.62939e-06 0.652954)"/>
</clipPath>
</defs>
</svg>
