<svg width="987" height="228" viewBox="0 0 987 228" fill="none" xmlns="http://www.w3.org/2000/svg">
<path fill-rule="evenodd" clip-rule="evenodd" d="M48.202 183.186C48.202 189.583 53.3797 194.768 59.7671 194.768H96.0158C102.403 194.768 107.581 189.583 107.581 183.186V146.196C107.581 143.166 110.034 140.709 113.06 140.709H134.675C141.063 140.709 146.24 135.523 146.24 129.126V86.6501H161.321C167.709 86.6501 172.887 81.4635 172.887 75.0668V38.077C172.887 31.6799 167.709 26.4947 161.321 26.4947H59.7671C53.3797 26.4947 48.202 31.6801 48.202 38.077V183.186ZM140.153 86.6501H88.615C82.2264 86.6501 77.0489 81.4635 77.0489 75.0668V65.1068C77.0489 58.7096 82.2268 53.5245 88.615 53.5245H134.675C141.063 53.5245 146.24 58.7099 146.24 65.1068V80.5542H161.321C164.347 80.5542 166.8 78.0972 166.8 75.0668V38.077C166.8 35.0471 164.348 32.5907 161.321 32.5907H59.7671C56.7414 32.5907 54.2889 35.0468 54.2889 38.077V183.186C54.2889 186.216 56.7414 188.672 59.7671 188.672H96.0158C99.0415 188.672 101.494 186.216 101.494 183.186V146.196C101.494 139.799 106.673 134.613 113.06 134.613H134.675C137.701 134.613 140.153 132.156 140.153 129.126V86.6501ZM140.153 80.5542V65.1068C140.153 62.0766 137.701 59.6204 134.675 59.6204H88.615C85.5881 59.6204 83.1358 62.0768 83.1358 65.1068V75.0668C83.1358 78.0972 85.5885 80.5542 88.615 80.5542H140.153Z" fill="#0B031D" stroke="#0B031D" stroke-width="1.0137" stroke-miterlimit="10"/>
<path d="M290.909 64.66V87.748H249.173V106.1H279.957V128.152H249.173V169H220.165V64.66H290.909ZM340.274 170.036C331.986 170.036 324.536 168.309 317.926 164.856C311.414 161.403 306.283 156.469 302.534 150.056C298.784 143.643 296.91 136.095 296.91 127.412C296.91 118.828 298.784 111.329 302.534 104.916C306.382 98.5027 311.562 93.5693 318.074 90.116C324.684 86.6627 332.134 84.936 340.422 84.936C348.71 84.936 356.11 86.6627 362.622 90.116C369.232 93.5693 374.412 98.5027 378.162 104.916C382.01 111.329 383.934 118.828 383.934 127.412C383.934 135.996 382.01 143.544 378.162 150.056C374.412 156.469 369.232 161.403 362.622 164.856C356.011 168.309 348.562 170.036 340.274 170.036ZM340.274 144.876C344.319 144.876 347.674 143.396 350.338 140.436C353.1 137.377 354.482 133.036 354.482 127.412C354.482 121.788 353.1 117.496 350.338 114.536C347.674 111.576 344.368 110.096 340.422 110.096C336.475 110.096 333.17 111.576 330.506 114.536C327.842 117.496 326.51 121.788 326.51 127.412C326.51 133.135 327.792 137.476 330.358 140.436C332.923 143.396 336.228 144.876 340.274 144.876ZM423.263 100.624C426.519 95.888 430.466 92.1387 435.103 89.376C439.741 86.6133 444.723 85.232 450.051 85.232V116.164H441.911C435.597 116.164 430.91 117.397 427.851 119.864C424.793 122.331 423.263 126.623 423.263 132.74V169H394.255V85.972H423.263V100.624ZM567.455 85.232C577.913 85.232 586.103 88.3893 592.023 94.704C598.041 101.019 601.051 109.652 601.051 120.604V169H572.043V124.452C572.043 120.012 570.809 116.559 568.343 114.092C565.876 111.625 562.521 110.392 558.279 110.392C554.036 110.392 550.681 111.625 548.215 114.092C545.748 116.559 544.515 120.012 544.515 124.452V169H515.507V124.452C515.507 120.012 514.273 116.559 511.807 114.092C509.439 111.625 506.133 110.392 501.891 110.392C497.549 110.392 494.145 111.625 491.679 114.092C489.212 116.559 487.979 120.012 487.979 124.452V169H458.971V85.972H487.979V96.924C490.544 93.372 493.849 90.56 497.895 88.488C502.039 86.3173 506.775 85.232 512.103 85.232C518.22 85.232 523.647 86.564 528.383 89.228C533.217 91.892 537.016 95.6413 539.779 100.476C542.739 95.9373 546.636 92.2867 551.471 89.524C556.305 86.6627 561.633 85.232 567.455 85.232ZM610.727 127.412C610.727 118.828 612.257 111.329 615.315 104.916C618.473 98.5027 622.715 93.5693 628.043 90.116C633.47 86.6627 639.489 84.936 646.099 84.936C651.822 84.936 656.755 86.0707 660.899 88.34C665.043 90.6093 668.25 93.668 670.519 97.516V85.972H699.527V169H670.519V157.456C668.25 161.304 664.994 164.363 660.751 166.632C656.607 168.901 651.723 170.036 646.099 170.036C639.489 170.036 633.47 168.309 628.043 164.856C622.715 161.403 618.473 156.469 615.315 150.056C612.257 143.544 610.727 135.996 610.727 127.412ZM670.519 127.412C670.519 122.084 669.039 117.891 666.079 114.832C663.218 111.773 659.666 110.244 655.423 110.244C651.082 110.244 647.481 111.773 644.619 114.832C641.758 117.792 640.327 121.985 640.327 127.412C640.327 132.74 641.758 136.983 644.619 140.14C647.481 143.199 651.082 144.728 655.423 144.728C659.666 144.728 663.218 143.199 666.079 140.14C669.039 137.081 670.519 132.839 670.519 127.412ZM768.893 85.232C778.464 85.232 786.061 88.4387 791.685 94.852C797.309 101.167 800.121 109.751 800.121 120.604V169H771.113V124.452C771.113 119.716 769.88 116.016 767.413 113.352C764.947 110.589 761.641 109.208 757.497 109.208C753.156 109.208 749.752 110.589 747.285 113.352C744.819 116.016 743.585 119.716 743.585 124.452V169H714.577V85.972H743.585V97.812C746.151 94.0627 749.604 91.0533 753.945 88.784C758.287 86.416 763.269 85.232 768.893 85.232ZM809.822 127.412C809.822 118.828 811.598 111.329 815.15 104.916C818.702 98.5027 823.635 93.5693 829.95 90.116C836.363 86.6627 843.665 84.936 851.854 84.936C862.411 84.936 871.291 87.8467 878.494 93.668C885.697 99.3907 890.334 107.432 892.406 117.792H861.622C859.846 112.365 856.393 109.652 851.262 109.652C847.611 109.652 844.701 111.181 842.53 114.24C840.458 117.2 839.422 121.591 839.422 127.412C839.422 133.233 840.458 137.673 842.53 140.732C844.701 143.791 847.611 145.32 851.262 145.32C856.491 145.32 859.945 142.607 861.622 137.18H892.406C890.334 147.441 885.697 155.483 878.494 161.304C871.291 167.125 862.411 170.036 851.854 170.036C843.665 170.036 836.363 168.309 829.95 164.856C823.635 161.403 818.702 156.469 815.15 150.056C811.598 143.643 809.822 136.095 809.822 127.412ZM982.305 126.524C982.305 128.793 982.157 131.063 981.861 133.332H926.953C927.249 137.871 928.482 141.275 930.653 143.544C932.922 145.715 935.783 146.8 939.237 146.8C944.071 146.8 947.525 144.629 949.597 140.288H980.529C979.246 146.011 976.73 151.141 972.981 155.68C969.33 160.12 964.693 163.623 959.069 166.188C953.445 168.753 947.229 170.036 940.421 170.036C932.231 170.036 924.93 168.309 918.517 164.856C912.202 161.403 907.219 156.469 903.569 150.056C900.017 143.643 898.241 136.095 898.241 127.412C898.241 118.729 900.017 111.231 903.569 104.916C907.121 98.5027 912.054 93.5693 918.369 90.116C924.782 86.6627 932.133 84.936 940.421 84.936C948.61 84.936 955.862 86.6133 962.177 89.968C968.491 93.3227 973.425 98.1573 976.977 104.472C980.529 110.688 982.305 118.039 982.305 126.524ZM952.705 119.272C952.705 115.72 951.521 112.957 949.153 110.984C946.785 108.912 943.825 107.876 940.273 107.876C936.721 107.876 933.81 108.863 931.541 110.836C929.271 112.711 927.791 115.523 927.101 119.272H952.705Z" fill="black"/>
</svg>
