<svg width="91" height="91" viewBox="0 0 91 91" fill="none" xmlns="http://www.w3.org/2000/svg">
<path d="M73.9294 1.15222H17.4897C8.95488 1.15222 2.03601 8.0912 2.03601 16.6509V73.2546C2.03601 81.8143 8.95488 88.7532 17.4897 88.7532H73.9294C82.4643 88.7532 89.3831 81.8143 89.3831 73.2546V16.6509C89.3831 8.0912 82.4643 1.15222 73.9294 1.15222Z" fill="#1A1A1A"/>
<path d="M16.6159 2.43481H74.8031C82.4977 2.43481 88.7354 8.67247 88.7354 16.367V74.5542C88.7354 82.2487 82.4977 88.4864 74.8031 88.4864H16.6159C8.92138 88.4864 2.68372 82.2487 2.68372 74.5542V16.367C2.68372 8.67247 8.92138 2.43481 16.6159 2.43481Z" stroke="url(#paint0_linear_1089_606)" stroke-width="4"/>
<g opacity="0.9">
<path d="M25.9367 65.0101V25.9112C25.9367 24.7017 26.9149 23.7236 28.1243 23.7236H36.6872C37.4466 23.7236 38.1529 24.1173 38.5498 24.7643L57.0758 54.9002C57.9727 56.3565 56.9227 58.2347 55.2132 58.2347H51.8411C50.6379 58.2347 49.6629 57.2659 49.6535 56.0627L49.4379 25.9268C49.4285 24.7111 50.4098 23.7236 51.6255 23.7236H63.2949C64.5043 23.7236 65.4825 24.7017 65.4825 25.9112V65.0101C65.4825 66.2195 64.5043 67.1977 63.2949 67.1977H28.1243C26.9149 67.1977 25.9367 66.2195 25.9367 65.0101V65.0101Z" stroke="white" stroke-width="1.63446" stroke-miterlimit="10"/>
</g>
<defs>
<linearGradient id="paint0_linear_1089_606" x1="73.835" y1="0.434815" x2="25.8609" y2="90.4864" gradientUnits="userSpaceOnUse">
<stop stop-color="#C6C6C6"/>
<stop offset="0.401042" stop-color="#BBB4B4"/>
<stop offset="0.75036" stop-color="#BAB0B0"/>
<stop offset="1" stop-color="#939393"/>
</linearGradient>
</defs>
</svg>
