<svg width="61" height="60" viewBox="0 0 61 60" fill="none" xmlns="http://www.w3.org/2000/svg">
<circle cx="30.7861" cy="30" r="30" fill="#0B031D"/>
<path d="M15.8872 45.3829V15.6171C15.8872 14.6963 16.6319 13.9517 17.5526 13.9517H24.0716C24.6497 13.9517 25.1874 14.2514 25.4895 14.7439L39.5933 37.6863C40.2761 38.795 39.4767 40.2249 38.1753 40.2249H35.6082C34.6922 40.2249 33.9499 39.4873 33.9427 38.5713L33.7786 15.629C33.7714 14.7035 34.5185 13.9517 35.444 13.9517H44.3278C45.2486 13.9517 45.9933 14.6963 45.9933 15.6171V45.3829C45.9933 46.3036 45.2486 47.0483 44.3278 47.0483H17.5526C16.6319 47.0483 15.8872 46.3036 15.8872 45.3829V45.3829Z" stroke="white" stroke-width="1.24431" stroke-miterlimit="10"/>
</svg>
