<svg width="91" height="91" viewBox="0 0 91 91" fill="none" xmlns="http://www.w3.org/2000/svg">
<path d="M73.9743 1.15222H17.5346C8.99974 1.15222 2.08087 8.0912 2.08087 16.6509V73.2546C2.08087 81.8143 8.99974 88.7532 17.5346 88.7532H73.9743C82.5091 88.7532 89.428 81.8143 89.428 73.2546V16.6509C89.428 8.0912 82.5091 1.15222 73.9743 1.15222Z" fill="#1A1A1A"/>
<path d="M16.6608 2.43481H74.848C82.5425 2.43481 88.7802 8.67247 88.7802 16.367V74.5542C88.7802 82.2487 82.5425 88.4864 74.848 88.4864H16.6608C8.96624 88.4864 2.72858 82.2487 2.72858 74.5542V16.367C2.72858 8.67247 8.96624 2.43481 16.6608 2.43481Z" stroke="url(#paint0_linear_1089_604)" stroke-width="4"/>
<g opacity="0.9">
<path d="M29.1489 58.2738V25.8596C29.1489 24.6502 30.1271 23.672 31.3365 23.672H43.459C45.831 23.672 48.1437 23.9158 50.4031 24.4033C52.6595 24.8908 54.6815 25.719 56.4722 26.8815C58.2629 28.0441 59.6943 29.5817 60.7631 31.488C61.8319 33.3944 62.3663 35.7695 62.3663 38.604C62.3663 41.9542 61.46 44.7699 59.6442 47.0482C57.9504 49.1764 55.2753 50.9109 52.3626 51.9078C52.3095 51.9266 52.2564 51.9422 52.2001 51.9578C51.7688 52.0734 49.7594 52.5797 47.5968 52.6141H36.0618C34.3117 52.6141 33.271 50.664 34.2429 49.2108L40.4839 39.8822C41.6871 38.0852 44.4872 38.9353 44.4903 41.0979L44.4997 54.1267V65.0616C44.4997 66.271 43.5215 67.2492 42.3121 67.2492H31.3303C30.1209 67.2492 29.1427 66.271 29.1427 65.0616V53.8548" stroke="white" stroke-width="1.63446" stroke-miterlimit="10"/>
</g>
<defs>
<linearGradient id="paint0_linear_1089_604" x1="73.8798" y1="0.434815" x2="25.9057" y2="90.4864" gradientUnits="userSpaceOnUse">
<stop stop-color="#C6C6C6"/>
<stop offset="0.401042" stop-color="#BBB4B4"/>
<stop offset="0.75036" stop-color="#BAB0B0"/>
<stop offset="1" stop-color="#939393"/>
</linearGradient>
</defs>
</svg>
