<svg width="61" height="60" viewBox="0 0 61 60" fill="none" xmlns="http://www.w3.org/2000/svg">
<circle cx="30.7861" cy="30" r="30" fill="#FAF19F"/>
<path d="M18.2987 40.2545V15.5778C18.2987 14.657 19.0434 13.9124 19.9641 13.9124H29.1929C30.9987 13.9124 32.7593 14.0979 34.4795 14.4691C36.1972 14.8402 37.7365 15.4707 39.0998 16.3558C40.4631 17.2408 41.5527 18.4114 42.3664 19.8627C43.1801 21.314 43.5869 23.1221 43.5869 25.28C43.5869 27.8305 42.897 29.9741 41.5147 31.7086C40.2252 33.3288 38.1886 34.6492 35.9712 35.4082C35.9308 35.4225 35.8903 35.4343 35.8475 35.4462C35.5191 35.5343 33.9893 35.9197 32.343 35.9459H23.5614C22.2291 35.9459 21.4368 34.4613 22.1768 33.3549L26.928 26.2531C27.8439 24.8851 29.9757 25.5322 29.9781 27.1786L29.9852 37.0974V45.4221C29.9852 46.3428 29.2405 47.0875 28.3198 47.0875H19.9594C19.0386 47.0875 18.2939 46.3428 18.2939 45.4221V36.8904" stroke="#0B031D" stroke-width="1.24431" stroke-miterlimit="10"/>
</svg>
