<svg width="91" height="91" viewBox="0 0 91 91" fill="none" xmlns="http://www.w3.org/2000/svg">
<path d="M73.7232 0.717407H17.2835C8.74864 0.717407 1.82977 7.65638 1.82977 16.216V72.8198C1.82977 81.3794 8.74864 88.3184 17.2835 88.3184H73.7232C82.258 88.3184 89.1769 81.3794 89.1769 72.8198V16.216C89.1769 7.65638 82.258 0.717407 73.7232 0.717407Z" fill="#1A1A1A"/>
<path d="M16.4097 2H74.5969C82.2915 2 88.5291 8.23766 88.5291 15.9322V74.1194C88.5291 81.8139 82.2915 88.0516 74.5969 88.0516H16.4097C8.71514 88.0516 2.47748 81.8139 2.47748 74.1194V15.9322C2.47748 8.23766 8.71514 2 16.4097 2Z" stroke="url(#paint0_linear_1089_607)" stroke-width="4"/>
<g opacity="0.9">
<path d="M43.9647 26.6298L28.2148 47.8815C27.2782 49.1468 28.1792 50.9405 29.754 50.9405H35.0669C36.2774 50.9405 37.1866 49.8314 36.9456 48.6429L32.698 27.6376C32.5172 26.7421 31.7312 26.1012 30.8193 26.1012H20.4508C19.2404 26.1012 18.3312 27.2104 18.5722 28.3962L25.4735 62.6591C25.6542 63.5547 26.4402 64.1982 27.3522 64.1982H37.5919C38.3697 64.1982 39.068 63.7299 39.3638 63.0124L43.7319 52.4112C44.3837 50.8283 46.6239 50.8283 47.2757 52.4112L51.6438 63.0124C51.9395 63.7299 52.6406 64.1982 53.4157 64.1982H63.6554C64.5673 64.1982 65.3533 63.5547 65.5341 62.6591L72.4354 28.3962C72.6737 27.2104 71.7672 26.1012 70.5567 26.1012H60.1883C59.2763 26.1012 58.4903 26.7448 58.3096 27.6376L54.062 48.6429C53.821 49.8314 54.7302 50.9405 55.9407 50.9405H61.2536C62.8283 50.9405 63.7321 49.1468 62.7927 47.8815L47.0429 26.6298C46.2761 25.5946 44.7287 25.5946 43.9619 26.6298H43.9647Z" stroke="white" stroke-width="1.4323" stroke-miterlimit="10"/>
</g>
<defs>
<linearGradient id="paint0_linear_1089_607" x1="73.6287" y1="2.32561e-07" x2="25.6546" y2="90.0515" gradientUnits="userSpaceOnUse">
<stop stop-color="#C6C6C6"/>
<stop offset="0.401042" stop-color="#BBB4B4"/>
<stop offset="0.75036" stop-color="#BAB0B0"/>
<stop offset="1" stop-color="#939393"/>
</linearGradient>
</defs>
</svg>
