<svg width="61" height="60" viewBox="0 0 61 60" fill="none" xmlns="http://www.w3.org/2000/svg">
<circle cx="30.7861" cy="30" r="30" fill="#FAF19F"/>
<path d="M29.6451 16.5206L17.9656 32.0925C17.2711 33.0196 17.9392 34.3339 19.107 34.3339H23.0468C23.9445 34.3339 24.6187 33.5212 24.44 32.6503L21.2901 17.259C21.1561 16.6028 20.5732 16.1333 19.897 16.1333H12.2082C11.3105 16.1333 10.6363 16.946 10.815 17.8149L15.9327 42.9206C16.0668 43.5768 16.6496 44.0483 17.3259 44.0483H24.9193C25.496 44.0483 26.0139 43.7052 26.2332 43.1794L29.4724 35.4115C29.9558 34.2517 31.617 34.2517 32.1004 35.4115L35.3396 43.1794C35.5589 43.7052 36.0788 44.0483 36.6535 44.0483H44.2469C44.9232 44.0483 45.506 43.5768 45.6401 42.9206L50.7578 17.8149C50.9345 16.946 50.2623 16.1333 49.3646 16.1333H41.6758C40.9996 16.1333 40.4167 16.6048 40.2827 17.259L37.1328 32.6503C36.9541 33.5212 37.6283 34.3339 38.526 34.3339H42.4658C43.6336 34.3339 44.3038 33.0196 43.6072 32.0925L31.9277 16.5206C31.3591 15.762 30.2117 15.762 29.643 16.5206H29.6451Z" stroke="#0B031D" stroke-width="1.24431" stroke-miterlimit="10"/>
</svg>
