<svg width="65" height="65" viewBox="0 0 65 65" fill="none" xmlns="http://www.w3.org/2000/svg">
<path d="M51.8018 2.78027H13.5016C7.70982 2.78027 3.01465 7.48909 3.01465 13.2977V51.7092C3.01465 57.5178 7.70982 62.2266 13.5016 62.2266H51.8018C57.5936 62.2266 62.2887 57.5178 62.2887 51.7092V13.2977C62.2887 7.48909 57.5936 2.78027 51.8018 2.78027Z" fill="#1A1A1A"/>
<path d="M52.3944 2.29346H12.9083C6.93722 2.29346 2.09668 7.134 2.09668 13.1051V52.5911C2.09668 58.5622 6.93722 63.4028 12.9083 63.4028H52.3944C58.3655 63.4028 63.2061 58.5622 63.2061 52.5911V13.1051C63.2061 7.134 58.3655 2.29346 52.3944 2.29346Z" stroke="url(#paint0_linear_2101_7710)" stroke-width="2.71441"/>
<g opacity="0.9">
<path d="M27.1038 26.4467V24.4977C27.1038 23.677 27.7676 23.0132 28.5884 23.0132H37.1159C37.9366 23.0132 38.6004 23.677 38.6004 24.4977V36.2806C38.6004 37.1013 37.9366 37.7651 37.1159 37.7651H33.0419C32.2212 37.7651 31.5574 38.4289 31.5574 39.2496V46.1145C31.5574 46.9352 30.8936 47.599 30.0729 47.599H23.3332C22.5124 47.599 21.8486 46.9352 21.8486 46.1145V19.5818C21.8486 18.7611 22.5124 18.0973 23.3332 18.0973H41.9703C42.791 18.0973 43.4548 18.7611 43.4548 19.5818V26.4467C43.4548 27.2674 42.791 27.9312 41.9703 27.9312H28.5884C27.7676 27.9312 27.1038 27.2674 27.1038 26.4467Z" stroke="white" stroke-width="1.10915" stroke-miterlimit="10"/>
</g>
<defs>
<linearGradient id="paint0_linear_2101_7710" x1="51.7374" y1="2.29346" x2="19.182" y2="63.4028" gradientUnits="userSpaceOnUse">
<stop stop-color="#C6C6C6"/>
<stop offset="0.401042" stop-color="#BBB4B4"/>
<stop offset="0.75036" stop-color="#BAB0B0"/>
<stop offset="1" stop-color="#939393"/>
</linearGradient>
</defs>
</svg>
