<svg width="65" height="65" viewBox="0 0 65 65" fill="none" xmlns="http://www.w3.org/2000/svg">
<path d="M51.3018 2.6499H13.0016C7.20982 2.6499 2.51465 7.35872 2.51465 13.1673V51.5788C2.51465 57.3875 7.20982 62.0963 13.0016 62.0963H51.3018C57.0936 62.0963 61.7887 57.3875 61.7887 51.5788V13.1673C61.7887 7.35872 57.0936 2.6499 51.3018 2.6499Z" fill="#1A1A1A"/>
<path d="M51.8944 2.16309H12.4083C6.43722 2.16309 1.59668 7.00363 1.59668 12.9747V52.4608C1.59668 58.4319 6.43722 63.2724 12.4083 63.2724H51.8944C57.8655 63.2724 62.7061 58.4319 62.7061 52.4608V12.9747C62.7061 7.00363 57.8655 2.16309 51.8944 2.16309Z" stroke="url(#paint0_linear_2100_7755)" stroke-width="2.71441"/>
<g opacity="0.9">
<path d="M33.5337 24.8466L33.5231 19.4493C33.5231 18.6307 32.8572 17.9669 32.0386 17.9669H24.5841C23.7634 17.9669 23.0996 18.6307 23.0996 19.4514V45.9841C23.0996 46.8048 23.7634 47.4686 24.5841 47.4686H39.7178C40.5385 47.4686 41.2023 46.8048 41.2023 45.9841V39.3631C41.2023 38.5424 40.5385 37.8786 39.7178 37.8786H27.6719C26.8512 37.8786 26.1874 38.5424 26.1874 39.3631V41.0894C26.1874 41.9101 26.8512 42.5739 27.6719 42.5739H32.0492C32.8699 42.5739 33.5337 41.9101 33.5337 41.0894V24.8445V24.8466Z" stroke="white" stroke-width="1.10915" stroke-miterlimit="10"/>
</g>
<defs>
<linearGradient id="paint0_linear_2100_7755" x1="51.2374" y1="2.16309" x2="18.682" y2="63.2724" gradientUnits="userSpaceOnUse">
<stop stop-color="#C6C6C6"/>
<stop offset="0.401042" stop-color="#BBB4B4"/>
<stop offset="0.75036" stop-color="#BAB0B0"/>
<stop offset="1" stop-color="#939393"/>
</linearGradient>
</defs>
</svg>
