<svg width="196" height="47" viewBox="0 0 196 47" fill="none" xmlns="http://www.w3.org/2000/svg">
<g clip-path="url(#clip0_2095_4962)">
<path fill-rule="evenodd" clip-rule="evenodd" d="M1.14185 37.1545C1.14185 38.476 2.20574 39.5471 3.51819 39.5471H10.9664C12.2789 39.5471 13.3427 38.476 13.3427 37.1545V29.5134C13.3427 28.8875 13.8469 28.3799 14.4686 28.3799H18.9099C20.2224 28.3799 21.2863 27.3087 21.2863 25.9873V17.2129H24.3849C25.6976 17.2129 26.7615 16.1415 26.7615 14.8201V7.17903C26.7615 5.85756 25.6975 4.78644 24.3849 4.78644H3.51819C2.20574 4.78644 1.14185 5.85761 1.14185 7.17903V37.1545ZM20.0356 17.2129H9.44571C8.13301 17.2129 7.06916 16.1415 7.06916 14.8201V12.7626C7.06916 11.4412 8.1331 10.37 9.44571 10.37H18.9099C20.2224 10.37 21.2863 11.4412 21.2863 12.7626V15.9537H24.3849C25.0068 15.9537 25.5108 15.4461 25.5108 14.8201V7.17903C25.5108 6.55312 25.0069 6.0457 24.3849 6.0457H3.51819C2.89649 6.0457 2.39255 6.55308 2.39255 7.17903V37.1545C2.39255 37.7805 2.89649 38.2879 3.51819 38.2879H10.9664C11.5881 38.2879 12.092 37.7805 12.092 37.1545V29.5134C12.092 28.192 13.1561 27.1207 14.4686 27.1207H18.9099C19.5316 27.1207 20.0356 26.6133 20.0356 25.9873V17.2129ZM20.0356 15.9537V12.7626C20.0356 12.1367 19.5316 11.6293 18.9099 11.6293H9.44571C8.82375 11.6293 8.31987 12.1367 8.31987 12.7626V14.8201C8.31987 15.4461 8.82385 15.9537 9.44571 15.9537H20.0356Z" fill="white"/>
<path d="M51.6235 12.7162V17.4856H43.0019V21.2766H49.3611V25.8319H43.0019V34.27H37.0097V12.7162H51.6235ZM61.8209 34.484C60.1088 34.484 58.57 34.1273 57.2044 33.414C55.8592 32.7006 54.7994 31.6815 54.0249 30.3567C53.2503 29.0319 52.8631 27.4727 52.8631 25.6791C52.8631 23.9059 53.2503 22.3568 54.0249 21.032C54.8197 19.7072 55.8898 18.6881 57.235 17.9747C58.6006 17.2614 60.1394 16.9047 61.8515 16.9047C63.5636 16.9047 65.0922 17.2614 66.4374 17.9747C67.803 18.6881 68.873 19.7072 69.6475 21.032C70.4424 22.3568 70.8399 23.9059 70.8399 25.6791C70.8399 27.4523 70.4424 29.0115 69.6475 30.3567C68.873 31.6815 67.803 32.7006 66.4374 33.414C65.0718 34.1273 63.533 34.484 61.8209 34.484ZM61.8209 29.2867C62.6566 29.2867 63.3495 28.9809 63.8999 28.3695C64.4705 27.7376 64.7559 26.8408 64.7559 25.6791C64.7559 24.5173 64.4705 23.6307 63.8999 23.0192C63.3495 22.4078 62.6668 22.1021 61.8515 22.1021C61.0362 22.1021 60.3534 22.4078 59.8031 23.0192C59.2528 23.6307 58.9776 24.5173 58.9776 25.6791C58.9776 26.8612 59.2426 27.758 59.7725 28.3695C60.3025 28.9809 60.9853 29.2867 61.8209 29.2867ZM78.9643 20.1454C79.6369 19.1671 80.4522 18.3926 81.4102 17.8219C82.3681 17.2512 83.3974 16.9658 84.498 16.9658V23.3555H82.8165C81.5121 23.3555 80.5439 23.6103 79.9121 24.1199C79.2803 24.6294 78.9643 25.516 78.9643 26.7797V34.27H72.9721V17.1187H78.9643V20.1454ZM108.75 16.9658C110.911 16.9658 112.602 17.6181 113.825 18.9225C115.069 20.2269 115.69 22.0103 115.69 24.2727V34.27H109.698V25.0676C109.698 24.1504 109.443 23.4371 108.934 22.9275C108.424 22.418 107.731 22.1632 106.855 22.1632C105.978 22.1632 105.285 22.418 104.776 22.9275C104.266 23.4371 104.012 24.1504 104.012 25.0676V34.27H98.0193V25.0676C98.0193 24.1504 97.7645 23.4371 97.255 22.9275C96.7658 22.418 96.083 22.1632 95.2066 22.1632C94.3098 22.1632 93.6066 22.418 93.0971 22.9275C92.5875 23.4371 92.3328 24.1504 92.3328 25.0676V34.27H86.3405V17.1187H92.3328V19.3811C92.8627 18.6473 93.5455 18.0665 94.3811 17.6384C95.2372 17.19 96.2155 16.9658 97.3161 16.9658C98.5798 16.9658 99.7008 17.241 100.679 17.7913C101.678 18.3416 102.463 19.1161 103.033 20.1148C103.645 19.1773 104.45 18.4231 105.448 17.8525C106.447 17.2614 107.548 16.9658 108.75 16.9658ZM117.689 25.6791C117.689 23.9059 118.005 22.3568 118.637 21.032C119.289 19.7072 120.166 18.6881 121.266 17.9747C122.387 17.2614 123.631 16.9047 124.996 16.9047C126.178 16.9047 127.197 17.1391 128.053 17.6079C128.909 18.0767 129.572 18.7085 130.041 19.5034V17.1187H136.033V34.27H130.041V31.8853C129.572 32.6802 128.899 33.3121 128.023 33.7809C127.167 34.2496 126.158 34.484 124.996 34.484C123.631 34.484 122.387 34.1273 121.266 33.414C120.166 32.7006 119.289 31.6815 118.637 30.3567C118.005 29.0115 117.689 27.4523 117.689 25.6791ZM130.041 25.6791C130.041 24.5785 129.735 23.7122 129.123 23.0804C128.532 22.4486 127.799 22.1326 126.922 22.1326C126.025 22.1326 125.282 22.4486 124.69 23.0804C124.099 23.6918 123.804 24.5581 123.804 25.6791C123.804 26.7797 124.099 27.6561 124.69 28.3083C125.282 28.9402 126.025 29.2561 126.922 29.2561C127.799 29.2561 128.532 28.9402 129.123 28.3083C129.735 27.6765 130.041 26.8001 130.041 25.6791ZM150.362 16.9658C152.339 16.9658 153.908 17.6282 155.07 18.9531C156.232 20.2575 156.813 22.0307 156.813 24.2727V34.27H150.821V25.0676C150.821 24.0893 150.566 23.325 150.056 22.7747C149.547 22.204 148.864 21.9186 148.008 21.9186C147.111 21.9186 146.408 22.204 145.898 22.7747C145.389 23.325 145.134 24.0893 145.134 25.0676V34.27H139.142V17.1187H145.134V19.5645C145.664 18.79 146.377 18.1684 147.274 17.6996C148.171 17.2104 149.2 16.9658 150.362 16.9658ZM158.817 25.6791C158.817 23.9059 159.184 22.3568 159.917 21.032C160.651 19.7072 161.67 18.6881 162.975 17.9747C164.3 17.2614 165.808 16.9047 167.499 16.9047C169.68 16.9047 171.515 17.506 173.003 18.7085C174.49 19.8906 175.448 21.5518 175.876 23.6918H169.517C169.15 22.5708 168.437 22.0103 167.377 22.0103C166.623 22.0103 166.022 22.3263 165.573 22.9581C165.145 23.5696 164.931 24.4765 164.931 25.6791C164.931 26.8816 165.145 27.7988 165.573 28.4306C166.022 29.0625 166.623 29.3784 167.377 29.3784C168.457 29.3784 169.171 28.8179 169.517 27.6969H175.876C175.448 29.8166 174.49 31.4777 173.003 32.6802C171.515 33.8828 169.68 34.484 167.499 34.484C165.808 34.484 164.3 34.1273 162.975 33.414C161.67 32.7006 160.651 31.6815 159.917 30.3567C159.184 29.0319 158.817 27.4727 158.817 25.6791ZM194.447 25.4956C194.447 25.9644 194.416 26.4332 194.355 26.902H183.013C183.074 27.8396 183.329 28.5427 183.777 29.0115C184.246 29.4599 184.837 29.6841 185.55 29.6841C186.549 29.6841 187.262 29.2357 187.69 28.3389H194.08C193.815 29.5211 193.295 30.5809 192.521 31.5185C191.767 32.4357 190.809 33.1592 189.647 33.6891C188.485 34.2191 187.201 34.484 185.795 34.484C184.103 34.484 182.595 34.1273 181.27 33.414C179.966 32.7006 178.936 31.6815 178.182 30.3567C177.448 29.0319 177.082 27.4727 177.082 25.6791C177.082 23.8855 177.448 22.3365 178.182 21.032C178.916 19.7072 179.935 18.6881 181.24 17.9747C182.564 17.2614 184.083 16.9047 185.795 16.9047C187.487 16.9047 188.985 17.2512 190.289 17.9442C191.593 18.6372 192.613 19.6359 193.346 20.9403C194.08 22.2244 194.447 23.7428 194.447 25.4956ZM188.332 23.9976C188.332 23.2638 188.088 22.6931 187.599 22.2855C187.109 21.8575 186.498 21.6435 185.764 21.6435C185.031 21.6435 184.429 21.8473 183.96 22.2549C183.492 22.6422 183.186 23.2231 183.043 23.9976H188.332Z" fill="white"/>
</g>
<defs>
<clipPath id="clip0_2095_4962">
<rect width="194.721" height="45.8591" fill="white" transform="translate(0.670166 0.27002)"/>
</clipPath>
</defs>
</svg>
