<svg width="65" height="65" viewBox="0 0 65 65" fill="none" xmlns="http://www.w3.org/2000/svg">
<path d="M51.3018 2.6499H13.0016C7.20982 2.6499 2.51465 7.35872 2.51465 13.1673V51.5788C2.51465 57.3875 7.20982 62.0963 13.0016 62.0963H51.3018C57.0936 62.0963 61.7887 57.3875 61.7887 51.5788V13.1673C61.7887 7.35872 57.0936 2.6499 51.3018 2.6499Z" fill="#1A1A1A"/>
<path d="M51.8944 2.16309H12.4083C6.43722 2.16309 1.59668 7.00363 1.59668 12.9747V52.4608C1.59668 58.4319 6.43722 63.2724 12.4083 63.2724H51.8944C57.8655 63.2724 62.7061 58.4319 62.7061 52.4608V12.9747C62.7061 7.00363 57.8655 2.16309 51.8944 2.16309Z" stroke="url(#paint0_linear_2101_7671)" stroke-width="2.71441"/>
<g opacity="0.9">
<path d="M20.8831 41.4128V19.4164C20.8831 18.5957 21.5469 17.9319 22.3677 17.9319H30.594C32.2037 17.9319 33.773 18.0973 35.3063 18.4281C36.8375 18.759 38.2096 19.321 39.4248 20.1099C40.64 20.8988 41.6113 21.9422 42.3366 23.2359C43.0619 24.5295 43.4246 26.1413 43.4246 28.0648C43.4246 30.3382 42.8095 32.249 41.5774 33.795C40.4279 35.2393 38.6126 36.4163 36.636 37.0928C36.6 37.1055 36.5639 37.1161 36.5258 37.1267C36.2331 37.2052 34.8695 37.5488 33.4019 37.5721H25.5742C24.3866 37.5721 23.6804 36.2488 24.34 35.2626L28.5751 28.9322C29.3916 27.7128 31.2918 28.2896 31.2939 29.7572L31.3002 38.5985V46.019C31.3002 46.8398 30.6365 47.5035 29.8157 47.5035H22.3634C21.5427 47.5035 20.8789 46.8398 20.8789 46.019V38.414" stroke="white" stroke-width="1.10915" stroke-miterlimit="10"/>
</g>
<defs>
<linearGradient id="paint0_linear_2101_7671" x1="51.2374" y1="2.16309" x2="18.682" y2="63.2724" gradientUnits="userSpaceOnUse">
<stop stop-color="#C6C6C6"/>
<stop offset="0.401042" stop-color="#BBB4B4"/>
<stop offset="0.75036" stop-color="#BAB0B0"/>
<stop offset="1" stop-color="#939393"/>
</linearGradient>
</defs>
</svg>
