<svg width="65" height="65" viewBox="0 0 65 65" fill="none" xmlns="http://www.w3.org/2000/svg">
<path d="M51.3018 2.6499H13.0016C7.20982 2.6499 2.51465 7.35872 2.51465 13.1673V51.5788C2.51465 57.3875 7.20982 62.0963 13.0016 62.0963H51.3018C57.0936 62.0963 61.7887 57.3875 61.7887 51.5788V13.1673C61.7887 7.35872 57.0936 2.6499 51.3018 2.6499Z" fill="#1A1A1A"/>
<path d="M51.8944 2.16309H12.4083C6.43722 2.16309 1.59668 7.00363 1.59668 12.9747V52.4608C1.59668 58.4319 6.43722 63.2724 12.4083 63.2724H51.8944C57.8655 63.2724 62.7061 58.4319 62.7061 52.4608V12.9747C62.7061 7.00363 57.8655 2.16309 51.8944 2.16309Z" stroke="url(#paint0_linear_2101_7690)" stroke-width="2.71441"/>
<g opacity="0.9">
<path d="M31.5694 20.697L20.8815 35.1185C20.2459 35.9771 20.8573 37.1944 21.9259 37.1944H25.5313C26.3527 37.1944 26.9697 36.4417 26.8062 35.6352L23.9238 21.3809C23.8011 20.7732 23.2677 20.3384 22.6489 20.3384H15.6128C14.7914 20.3384 14.1744 21.091 14.3379 21.8957L19.0212 45.1467C19.1439 45.7544 19.6772 46.1911 20.2961 46.1911H27.2448C27.7726 46.1911 28.2465 45.8733 28.4472 45.3864L31.4114 38.1924C31.8537 37.1182 33.3739 37.1182 33.8162 38.1924L36.7804 45.3864C36.9812 45.8733 37.4569 46.1911 37.9829 46.1911H44.9316C45.5504 46.1911 46.0838 45.7544 46.2065 45.1467L50.8897 21.8957C51.0514 21.091 50.4363 20.3384 49.6148 20.3384H42.5788C41.9599 20.3384 41.4265 20.7751 41.3039 21.3809L38.4215 35.6352C38.2579 36.4417 38.8749 37.1944 39.6963 37.1944H43.3017C44.3703 37.1944 44.9836 35.9771 44.3462 35.1185L33.6583 20.697C33.1379 19.9945 32.0879 19.9945 31.5675 20.697H31.5694Z" stroke="white" stroke-width="0.971964" stroke-miterlimit="10"/>
</g>
<defs>
<linearGradient id="paint0_linear_2101_7690" x1="51.2374" y1="2.16309" x2="18.682" y2="63.2724" gradientUnits="userSpaceOnUse">
<stop stop-color="#C6C6C6"/>
<stop offset="0.401042" stop-color="#BBB4B4"/>
<stop offset="0.75036" stop-color="#BAB0B0"/>
<stop offset="1" stop-color="#939393"/>
</linearGradient>
</defs>
</svg>
