<svg width="34" height="33" viewBox="0 0 34 33" fill="none" xmlns="http://www.w3.org/2000/svg">
<path d="M17.4384 0.689941C8.32675 0.689941 0.938232 8.02524 0.938232 17.0741C0.938232 24.313 5.666 30.4545 12.222 32.621C13.0467 32.7726 13.3495 32.2655 13.3495 31.8327C13.3495 31.4421 13.334 30.1514 13.327 28.7825C8.73667 29.7735 7.76807 26.8493 7.76807 26.8493C7.01745 24.9555 5.93593 24.4519 5.93593 24.4519C4.43894 23.435 6.04885 23.456 6.04885 23.456C7.70568 23.5715 8.57812 25.1443 8.57812 25.1443C10.0498 27.649 12.4382 26.925 13.3797 26.5063C13.5279 25.4474 13.9554 24.7245 14.4274 24.3154C10.7624 23.9012 6.90981 22.4963 6.90981 16.2184C6.90981 14.4296 7.55435 12.968 8.60983 11.8206C8.43851 11.4079 7.87378 9.74159 8.76967 7.48469C8.76967 7.48469 10.1553 7.04437 13.3085 9.16418C14.6246 8.80117 16.0361 8.61916 17.4384 8.61289C18.8406 8.61916 20.2533 8.80105 21.5719 9.16418C24.7212 7.0445 26.1049 7.48482 26.1049 7.48482C27.0029 9.74146 26.438 11.408 26.2666 11.8206C27.3246 12.968 27.9647 14.4296 27.9647 16.2184C27.9647 22.5113 24.1047 23.8969 20.4305 24.3025C21.0223 24.8109 21.5497 25.808 21.5497 27.3366C21.5497 29.5287 21.5306 31.2931 21.5306 31.8327C21.5306 32.2688 21.8276 32.7797 22.664 32.6186C29.2164 30.4499 33.9382 24.3107 33.9382 17.0742C33.9382 8.02524 26.5507 0.689941 17.4384 0.689941ZM7.11813 24.0295C7.08178 24.1109 6.95274 24.1353 6.83531 24.0794C6.71555 24.026 6.64839 23.915 6.68706 23.8334C6.72264 23.7495 6.85194 23.7261 6.9713 23.7823C7.09119 23.8358 7.15951 23.9478 7.11813 24.0295ZM7.92972 24.7486C7.85109 24.821 7.69717 24.7874 7.59276 24.6729C7.48487 24.5587 7.46463 24.4059 7.54442 24.3324C7.62563 24.26 7.77478 24.2939 7.88293 24.4081C7.99095 24.5237 8.01183 24.6754 7.92972 24.7486ZM8.4866 25.6686C8.3854 25.7384 8.22015 25.673 8.11792 25.5273C8.01686 25.3817 8.01686 25.2069 8.12012 25.1369C8.2226 25.0669 8.3854 25.1299 8.48892 25.2745C8.58972 25.4226 8.58972 25.5973 8.48647 25.6688L8.4866 25.6686ZM9.42813 26.7342C9.33776 26.8333 9.14505 26.8067 9.00403 26.6715C8.85978 26.5394 8.81969 26.352 8.91044 26.253C9.00196 26.1536 9.19571 26.1815 9.33776 26.3157C9.48085 26.4475 9.52468 26.6363 9.42813 26.7342ZM10.6453 27.0939C10.6053 27.2223 10.4197 27.2807 10.2329 27.2261C10.0462 27.1699 9.92416 27.0197 9.9618 26.89C10.0006 26.7607 10.187 26.7001 10.3752 26.7584C10.5616 26.8142 10.6841 26.9634 10.6453 27.0939ZM12.0302 27.2466C12.0349 27.3817 11.8764 27.4937 11.6802 27.4962C11.483 27.5006 11.3233 27.3913 11.3211 27.2581C11.3211 27.1218 11.4761 27.0108 11.6734 27.0075C11.8696 27.0037 12.0302 27.1122 12.0302 27.2466ZM13.3908 27.1948C13.4143 27.3266 13.278 27.462 13.0831 27.4981C12.8917 27.5328 12.7143 27.4514 12.69 27.3207C12.6663 27.1856 12.8051 27.0501 12.9963 27.0152C13.1914 26.9815 13.366 27.0608 13.3908 27.1948Z" fill="white"/>
</svg>
